<?xml version="1.0" encoding="UTF-8"?>
<svg id="_레이어_1" data-name="레이어_1" xmlns="http://www.w3.org/2000/svg" version="1.1" viewBox="0 0 743.96 255.12">
  <!-- Generator: Adobe Illustrator 30.2.1, SVG Export Plug-In . SVG Version: 2.1.1 Build 1)  -->
  <defs>
    <style>
      .st0 {
        fill: #004483;
      }
    </style>
  </defs>
  <g>
    <path class="st0" d="M41.78,186.43v22h11.16v-22h10.68v54.9h-10.68v-22.96h-11.16v22.96h-10.68v-54.9h10.68Z"/>
    <path class="st0" d="M86.85,228.79l-2.45,12.54h-10.36l11.89-54.9h12.8l10.67,54.9h-10.34l-2.36-12.54h-9.85ZM95.71,220.47l-1.78-11.48c-.59-3.35-1.3-8.8-1.8-12.47h-.26c-.55,3.66-1.37,9.36-1.94,12.54l-2.04,11.41h7.82Z"/>
    <path class="st0" d="M120.5,241.33v-54.9h9.76l8.47,21.52c1.62,4.21,4.33,11.23,5.86,16.05h.17c-.32-5.8-1.05-15.33-1.05-25.43v-12.14h9.37v54.9h-9.77l-8.4-20.86c-1.78-4.64-4.31-11.56-5.55-16.54h-.16c.25,5.53.65,14.03.65,25.1v12.29h-9.35Z"/>
    <path class="st0" d="M173.67,241.33v-21.02l-12.05-33.89h11.42l3.73,13.11c.98,3.5,2.04,7.58,2.87,11.66h.16c.63-4,1.54-7.98,2.51-11.89l3.27-12.88h11.06l-12.3,33.48v21.42h-10.67Z"/>
    <path class="st0" d="M211.56,228.79l-2.44,12.54h-10.35l11.9-54.9h12.77l10.69,54.9h-10.34l-2.37-12.54h-9.86ZM220.44,220.47l-1.8-11.48c-.55-3.35-1.3-8.8-1.79-12.47h-.23c-.57,3.66-1.39,9.36-1.96,12.54l-2.04,11.41h7.81Z"/>
    <path class="st0" d="M245.21,241.33v-54.9h9.77l8.47,21.52c1.63,4.21,4.31,11.23,5.87,16.05h.16c-.32-5.8-1.07-15.33-1.07-25.43v-12.14h9.36v54.9h-9.76l-8.39-20.86c-1.8-4.64-4.32-11.56-5.54-16.54h-.16c.24,5.53.65,14.03.65,25.1v12.29h-9.36Z"/>
    <path class="st0" d="M322.76,239.86c-2.35.99-7.41,1.95-11.39,1.95-6.27,0-11-1.78-14.66-5.45-4.73-4.54-7.27-12.7-7.11-22.15.27-19.97,11.65-28.25,23.3-28.25,4.17,0,7.25.8,8.98,1.62l-1.89,9.2c-1.53-.74-3.57-1.22-6.27-1.22-7.26,0-13.03,4.96-13.03,19.31,0,13.2,5.14,17.93,10.1,17.93.98,0,1.71-.06,2.12-.25v-13.28h-4.89v-8.73h14.75v29.33Z"/>
    <path class="st0" d="M364.14,186.43v35.68c0,8.05,2.44,10.52,5.23,10.52,3.1,0,5.29-2.2,5.29-10.52v-35.68h10.66v33.81c0,14.08-5.28,21.73-15.88,21.73-11.49,0-15.97-7.89-15.97-21.66v-33.89h10.68Z"/>
    <path class="st0" d="M399.58,241.33v-54.9h9.79l8.46,21.52c1.62,4.21,4.31,11.23,5.87,16.05h.14c-.33-5.8-1.06-15.33-1.06-25.43v-12.14h9.37v54.9h-9.77l-8.38-20.86c-1.8-4.64-4.33-11.56-5.55-16.54h-.18c.25,5.53.67,14.03.67,25.1v12.29h-9.36Z"/>
    <path class="st0" d="M457.35,186.43v54.9h-10.69v-54.9h10.69Z"/>
    <path class="st0" d="M479.58,241.33l-12.3-54.9h11.82l3.91,23.71c.98,5.86,2.12,12.62,2.84,19.06h.16c.73-6.52,1.63-13.11,2.62-19.31l3.73-23.46h11.75l-12.57,54.9h-11.96Z"/>
    <path class="st0" d="M537.01,217.22h-12.55v14.82h14.2v9.29h-24.87v-54.9h23.89v9.31h-13.22v12.61h12.55v8.88Z"/>
    <path class="st0" d="M550.92,187.24c3.36-.65,7.58-1.05,11.65-1.05,5.88,0,11.1.8,14.66,4.07,3.36,3,4.34,6.68,4.34,11.4,0,5.86-2.87,11.15-8.48,13.77v.15c3.75,1.47,5.61,4.99,6.69,10.84,1.05,6.11,2.53,12.88,3.51,14.9h-11.15c-.66-1.55-1.89-7.08-2.71-13.11-.98-6.84-2.67-8.8-6.26-8.8h-1.55v21.9h-10.69v-54.09ZM561.61,211.2h1.88c4.63,0,7.31-3.76,7.31-8.57s-1.87-7.98-6.66-8.15c-.92,0-1.96.08-2.54.33v16.39Z"/>
    <path class="st0" d="M593.06,230.42c2.2,1.21,5.94,2.11,9.02,2.11,5.07,0,7.49-2.61,7.49-6.19,0-3.99-2.42-5.93-7.06-8.96-7.51-4.57-10.35-10.35-10.35-15.31,0-8.81,5.86-16.12,17.34-16.12,3.6,0,7,.96,8.64,1.94l-1.71,9.22c-1.53-.99-3.92-1.89-7-1.89-4.56,0-6.78,2.78-6.78,5.72,0,3.24,1.63,4.95,7.59,8.54,7.24,4.41,9.93,9.95,9.93,15.72,0,10.04-7.41,16.62-18.16,16.62-4.39,0-8.74-1.12-10.5-2.19l1.55-9.19Z"/>
    <path class="st0" d="M642.08,186.43v54.9h-10.64v-54.9h10.64Z"/>
    <path class="st0" d="M662.61,196.27h-9.69v-9.84h30.15v9.84h-9.77v45.06h-10.69v-45.06Z"/>
    <path class="st0" d="M702.62,241.33v-21.02l-12.06-33.89h11.41l3.75,13.11c.98,3.5,2.03,7.58,2.84,11.66h.16c.65-4,1.55-7.98,2.52-11.89l3.26-12.88h11.1l-12.3,33.48v21.42h-10.67Z"/>
  </g>
  <path class="st0" d="M129.21,14.37h-20.91v104.83h20.91v-56.74h20.6v-12.22h-20.6V14.37ZM59.91,106.98h-20.93v53.51h92.69v-12.38H59.91v-41.13ZM697.22,126.79h19.69V14.2h-101.33v12.39h81.64v100.2ZM204.45,11.2c-51.86,0-51.86,75.77,0,75.77s51.73-75.77,0-75.77ZM204.45,22.87c25.31,0,25.31,52.56,0,52.56s-25.45-52.56,0-52.56ZM78.53,33.69h18.94v-12.38h-31.4v-11.78h-20.94v11.78H13.75v12.38h18.9c-23.16,17.88-15.52,62.67,22.98,62.67s45.98-44.8,22.92-62.67ZM55.62,37.37c23.76,0,23.76,48.04,0,48.04s-23.95-48.04,0-48.04ZM481.22,119.19h73.12v41.3h20.92v-53.51h-94.04v12.21ZM575.25,14.37h-20.92v85.85h20.92v-37.77h20.6v-12.22h-20.6V14.37ZM524.59,33.69h18.94v-12.38h-31.41v-11.78h-20.95v11.78h-31.36v12.38h18.9c-23.19,17.88-15.54,62.67,22.99,62.67s45.93-44.8,22.9-62.67ZM501.64,37.37c23.78,0,23.78,48.04,0,48.04s-23.95-48.04,0-48.04ZM238.42,93.12c-53.42,0-53.6,72.39,0,72.39s53.26-72.39,0-72.39ZM238.42,153.9c-26.15,0-26.15-49.54,0-49.54s25.98,49.54,0,49.54ZM684.19,138.39v-63.41h-19.33v63.41h-13.87v-63.41h-19.35v63.41h-21.15v12.39h114.59v-12.39h-40.89ZM276.6,14.51h-21.05v78.02h21.05v-20.52h20.63v-12.41h-20.63v-17.69h20.63v-12.23h-20.63v-15.18ZM414.5,59.6h-9.71V14.37h-19.7v83.35h-39.1V26.76h28.85v-12.4h-49.78v95.76h60.03v50.52h19.7v-88.63h9.71v88.63h19.68V14.37h-19.68v45.23Z"/>
</svg>